<svg width="13" height="14" viewBox="0 0 13 14" fill="none" xmlns="http://www.w3.org/2000/svg">
<path d="M6.49995 7.54164C6.7991 7.54164 7.04162 7.29913 7.04162 6.99997C7.04162 6.70082 6.7991 6.45831 6.49995 6.45831C6.20079 6.45831 5.95828 6.70082 5.95828 6.99997C5.95828 7.29913 6.20079 7.54164 6.49995 7.54164Z" stroke="#344054" stroke-width="1.08333" stroke-linecap="round" stroke-linejoin="round"/>
<path d="M6.49995 3.74997C6.7991 3.74997 7.04162 3.50746 7.04162 3.20831C7.04162 2.90915 6.7991 2.66664 6.49995 2.66664C6.20079 2.66664 5.95828 2.90915 5.95828 3.20831C5.95828 3.50746 6.20079 3.74997 6.49995 3.74997Z" stroke="#344054" stroke-width="1.08333" stroke-linecap="round" stroke-linejoin="round"/>
<path d="M6.49995 11.3333C6.7991 11.3333 7.04162 11.0908 7.04162 10.7916C7.04162 10.4925 6.7991 10.25 6.49995 10.25C6.20079 10.25 5.95828 10.4925 5.95828 10.7916C5.95828 11.0908 6.20079 11.3333 6.49995 11.3333Z" stroke="#344054" stroke-width="1.08333" stroke-linecap="round" stroke-linejoin="round"/>
</svg>
