<svg width="20" height="20" viewBox="0 0 20 20" fill="none" xmlns="http://www.w3.org/2000/svg">
<path d="M8.75002 16.5833V3.41666C8.75002 2.16666 8.21669 1.66666 6.89169 1.66666H3.52502C2.20002 1.66666 1.66669 2.16666 1.66669 3.41666V16.5833C1.66669 17.8333 2.20002 18.3333 3.52502 18.3333H6.89169C8.21669 18.3333 8.75002 17.8333 8.75002 16.5833Z" stroke="#667085" stroke-width="1.5" stroke-linecap="round" stroke-linejoin="round"/>
<path d="M18.3333 9.08332V3.41666C18.3333 2.16666 17.8 1.66666 16.475 1.66666H13.1083C11.7833 1.66666 11.25 2.16666 11.25 3.41666V9.08332C11.25 10.3333 11.7833 10.8333 13.1083 10.8333H16.475C17.8 10.8333 18.3333 10.3333 18.3333 9.08332Z" stroke="#667085" stroke-width="1.5" stroke-linecap="round" stroke-linejoin="round"/>
<path d="M18.3333 16.5833V15.0833C18.3333 13.8333 17.8 13.3333 16.475 13.3333H13.1083C11.7833 13.3333 11.25 13.8333 11.25 15.0833V16.5833C11.25 17.8333 11.7833 18.3333 13.1083 18.3333H16.475C17.8 18.3333 18.3333 17.8333 18.3333 16.5833Z" stroke="#667085" stroke-width="1.5" stroke-linecap="round" stroke-linejoin="round"/>
</svg>
